<svg xmlns="http://www.w3.org/2000/svg" width="17" height="21" fill="none">
  <path fill="#1e8e3e"
    d="M1.253 3.31a8.843 8.843 0 0 1 5.47-1.882c4.882 0 8.838 3.927 8.838 8.772 0 4.845-3.956 8.772-8.837 8.772a8.842 8.842 0 0 1-5.47-1.882c-.237.335-.49.657-.758.966a10.074 10.074 0 0 0 6.228 2.14c5.562 0 10.07-4.475 10.07-9.996 0-5.52-4.508-9.996-10.07-9.996-2.352 0-4.514.8-6.228 2.14.268.309.521.631.757.966Z" />
  <path fill="#1e8e3e"
    d="M11.348 8.125 6.34 13.056l-3.006-2.954 1.002-.985 1.999 1.965 4.012-3.942 1.002.985Z" />
</svg>
