<svg xmlns="http://www.w3.org/2000/svg" width="17" height="21" fill="none">
  <path fill="#ea8600"
    d="M1.254 3.31a8.843 8.843 0 0 1 5.47-1.882c4.881 0 8.838 3.927 8.838 8.772 0 4.845-3.957 8.772-8.838 8.772a8.842 8.842 0 0 1-5.47-1.882c-.236.335-.49.657-.757.966a10.074 10.074 0 0 0 6.227 2.14c5.562 0 10.071-4.475 10.071-9.996 0-5.52-4.509-9.996-10.07-9.996-2.352 0-4.515.8-6.228 2.14.268.309.52.631.757.966Z" />
  <path fill="#ea8600"
    d="m10.321 8.126-1.987 1.972 1.987 1.972-.993.986-1.987-1.972-1.987 1.972-.993-.986 1.986-1.972-1.986-1.972.993-.986 1.987 1.972L9.328 7.14l.993.986Z" />
</svg>
